<?xml version="1.0" encoding="UTF-8"?>
<svg width="25px" height="25px" viewBox="0 0 25 25" xmlns="http://www.w3.org/2000/svg" xmlns:xlink="http://www.w3.org/1999/xlink" version="1.1">
 <!-- Generated by Pixelmator Pro 2.0.6 -->
 <g id="layer1">
  <g id="g859">
   <path id="path815" d="M22.676 12.582 C22.676 18.352 18.147 23.029 12.559 23.029 6.971 23.029 2.441 18.352 2.441 12.582 2.441 6.813 6.971 2.136 12.559 2.136 18.147 2.136 22.676 6.813 22.676 12.582 Z" fill="#ff00ff" fill-opacity="1" stroke="none"/>
   <path id="ellipse831" d="M23.928 12.486 C23.928 18.805 18.805 23.928 12.486 23.928 6.167 23.928 1.045 18.805 1.045 12.486 1.045 6.167 6.167 1.045 12.486 1.045 18.805 1.045 23.928 6.167 23.928 12.486 Z" fill="none" stroke="#dc6de4" stroke-width="0.368" stroke-opacity="1" stroke-linejoin="round" stroke-linecap="round"/>
   <defs>
    <linearGradient id="linear-gradient" gradientUnits="userSpaceOnUse" x1="6.985" y1="4.051" x2="18.244" y2="20.766">
     <stop offset="0" stop-color="#00009f" stop-opacity="1"/>
     <stop offset="0.462" stop-color="#7500cb" stop-opacity="0.537"/>
     <stop offset="0.768" stop-color="#f3b5ff" stop-opacity="0.227"/>
     <stop offset="1" stop-color="#ffcc00" stop-opacity="1"/>
    </linearGradient>
   </defs>
   <path id="ellipse11291" d="M22.676 12.582 C22.676 18.352 18.147 23.029 12.559 23.029 6.971 23.029 2.441 18.352 2.441 12.582 2.441 6.813 6.971 2.136 12.559 2.136 18.147 2.136 22.676 6.813 22.676 12.582 Z" fill-opacity="1" fill="url(#linear-gradient)" stroke="none"/>
   <defs>
    <linearGradient id="linear-gradient-1" gradientUnits="userSpaceOnUse" x1="6.985" y1="4.051" x2="18.244" y2="20.766">
     <stop offset="0" stop-color="#00009f" stop-opacity="1"/>
     <stop offset="0.32" stop-color="#7500cb" stop-opacity="0.537"/>
     <stop offset="0.597" stop-color="#c30077" stop-opacity="0.718"/>
     <stop offset="0.838" stop-color="#ff0000" stop-opacity="0.933"/>
     <stop offset="1" stop-color="#ffff00" stop-opacity="1"/>
    </linearGradient>
   </defs>
   <path id="ellipse11303" d="M22.676 12.582 C22.676 18.352 18.147 23.029 12.559 23.029 6.971 23.029 2.441 18.352 2.441 12.582 2.441 6.813 6.971 2.136 12.559 2.136 18.147 2.136 22.676 6.813 22.676 12.582 Z" fill-opacity="1" fill="url(#linear-gradient-1)" stroke="none"/>
   <defs>
    <linearGradient id="linear-gradient-2" gradientUnits="userSpaceOnUse" x1="13.24" y1="12.802" x2="17.44" y2="17.734">
     <stop offset="0" stop-color="#000000" stop-opacity="0.6"/>
     <stop offset="1" stop-color="#000000" stop-opacity="0"/>
    </linearGradient>
   </defs>
   <path id="path11355" d="M17.017 8.34 L17.287 9.623 17.45 12.902 17.525 15.604 17.012 17.226 15.292 17.681 12.107 17.831 8.133 17.396 13.688 22.951 C18.316 22.41 21.988 18.677 22.584 13.908 Z" fill-opacity="1" fill="url(#linear-gradient-2)" stroke="none"/>
   <path id="rect11333" d="M17.44 12.832 L17.44 15.668 C17.44 16.809 16.515 17.734 15.374 17.734 L9.702 17.734 C8.561 17.734 7.637 16.809 7.637 15.668 L7.637 9.996 C7.637 8.855 8.561 7.931 9.702 7.931 L15.374 7.931 C16.515 7.931 17.44 8.855 17.44 9.996 Z" fill="none" stroke="#ffffff" stroke-width="0.569" stroke-opacity="1" stroke-linejoin="round" stroke-linecap="round"/>
   <path id="path11351" d="M15.888 9.449 C15.888 9.781 15.619 10.05 15.287 10.05 14.955 10.05 14.687 9.781 14.687 9.449 14.687 9.118 14.955 8.849 15.287 8.849 15.619 8.849 15.888 9.118 15.888 9.449 Z" fill="#ffffff" fill-opacity="1" stroke="none"/>
   <path id="circle11353" d="M15.079 12.832 C15.079 14.236 13.942 15.373 12.538 15.373 11.135 15.373 9.997 14.236 9.997 12.832 9.997 11.429 11.135 10.291 12.538 10.291 13.942 10.291 15.079 11.429 15.079 12.832 Z" fill="none" stroke="#ffffff" stroke-width="0.785" stroke-opacity="1" stroke-linejoin="round" stroke-linecap="round"/>
  </g>
 </g>
</svg>
