<?xml version="1.0" encoding="UTF-8"?>
<svg width="23px" height="23px" viewBox="0 0 23 23" xmlns="http://www.w3.org/2000/svg" xmlns:xlink="http://www.w3.org/1999/xlink" version="1.1">
 <!-- Generated by Pixelmator Pro 2.0.6 -->
 <g id="Layer_x0020_1">
  <g id="_320501824">
   <path id="Путь" d="M23 11.5 L23 20.826 C23 22.027 22.027 23 20.826 23 L2.174 23 C0.973 23 -0 22.027 -0 20.826 L-0 2.174 C-0 0.973 0.973 0 2.174 0 L20.826 0 C22.027 0 23 0.973 23 2.174 Z" fill="#2dc100" fill-opacity="1" stroke="none"/>
   <g id="group">
    <path id="Путь-1" d="M12.244 3.891 C16.478 4.463 18.423 6.522 18.995 10.756 18.995 11.214 18.995 11.672 19.453 11.672 19.91 11.672 19.91 11.328 19.91 10.985 19.91 10.985 19.91 10.871 19.91 10.756 20.025 6.751 16.478 3.09 12.358 2.975 12.015 2.975 11.328 2.746 11.328 3.433 11.328 3.891 11.9 3.776 12.244 3.891 Z" fill="#fefefe" fill-opacity="1" stroke="none"/>
    <path id="Путь-2" d="M13.045 5.035 C12.587 4.92 12.129 4.806 12.015 5.264 11.9 5.95 12.473 5.836 12.93 5.95 15.562 6.522 16.478 7.438 16.935 10.07 L16.935 10.413 C16.935 10.642 17.05 10.985 17.507 10.871 17.736 10.871 17.851 10.756 17.851 10.527 17.851 10.413 17.851 10.184 17.851 10.07 17.851 7.552 15.677 5.264 13.045 5.035 Z" fill="#fefefe" fill-opacity="1" stroke="none"/>
    <path id="Путь-3" d="M13.274 6.98 C13.045 6.98 12.701 7.095 12.701 7.323 12.473 7.781 12.816 7.896 13.159 7.896 14.189 8.124 14.761 8.697 14.876 9.726 14.876 9.955 14.99 10.07 14.99 10.184 15.104 10.184 15.219 10.299 15.448 10.299 15.448 10.299 15.562 10.184 15.562 10.184 15.791 10.07 15.791 9.841 15.791 9.612 15.791 8.353 14.418 6.98 13.274 6.98 Z" fill="#fefefe" fill-opacity="1" stroke="none"/>
    <path id="Путь-4" d="M18.766 15.333 C18.194 14.876 17.622 14.532 17.164 14.189 16.02 13.388 14.99 13.388 14.075 14.532 13.617 15.219 13.045 15.333 12.358 14.99 10.413 14.189 8.925 12.816 8.124 10.985 8.01 10.642 7.896 10.413 7.896 10.07 7.781 9.612 8.01 9.154 8.582 8.811 9.04 8.468 9.498 8.124 9.498 7.438 9.498 6.522 7.209 3.547 6.408 3.204 6.065 3.09 5.721 3.09 5.264 3.204 3.204 3.891 2.403 5.607 3.204 7.552 3.662 8.582 4.234 9.612 4.806 10.527 7.323 14.761 10.985 17.851 15.791 19.796 16.134 20.025 16.478 20.025 16.592 20.139 17.965 20.139 19.567 18.881 20.025 17.622 20.368 16.363 19.453 15.905 18.766 15.333 Z" fill="#fefefe" fill-opacity="1" stroke="none"/>
   </g>
  </g>
 </g>
</svg>
